<svg xmlns="http://www.w3.org/2000/svg" viewBox="0 0 22.08 20.75"><defs><style>.cls-1{fill:#fcb855;}.cls-2{fill:#fff;}</style></defs><title>2d</title><g id="Layer_2" data-name="Layer 2"><g id="Layer_1-2" data-name="Layer 1"><polygon class="cls-1" points="20.98 19.86 1.15 19.9 1.15 1.4 12.61 0.81 12.56 6.4 21.15 6.4 20.98 19.86"/><path class="cls-2" d="M3.46,20.75H.8A.79.79,0,0,1,0,20V.8A.79.79,0,0,1,.8,0H12.24a.79.79,0,0,1,.8.8.79.79,0,0,1-.8.8H1.6V19.15H3.46a.8.8,0,0,1,0,1.6Zm17.82,0H8.78a.8.8,0,0,1,0-1.6h11.7V6.92H12.24a.8.8,0,0,1,0-1.6h9a.79.79,0,0,1,.8.8V20A.79.79,0,0,1,21.28,20.75Z"/><path class="cls-2" d="M6.92,6.92H.8a.8.8,0,0,1,0-1.6H6.92a.8.8,0,0,1,0,1.6Zm5.32,13.46a.78.78,0,0,1-.8-.8V10.67a.8.8,0,0,1,1.6,0v8.91A.81.81,0,0,1,12.24,20.38Z"/></g></g></svg>