<svg xmlns="http://www.w3.org/2000/svg" viewBox="0 0 25.89 25.89"><defs><style>.cls-1{fill:#fff;}.cls-2{fill:#010101;}.cls-3{fill:#a8c0e4;}.cls-4{fill:#fcb855;isolation:isolate;}</style></defs><title>animation</title><g id="Layer_2" data-name="Layer 2"><g id="Layer_1-2" data-name="Layer 1"><path class="cls-1" d="M13.5,4.34V.54A.57.57,0,0,0,12.94,0a.49.49,0,0,0-.5.54v3.8a10.76,10.76,0,1,0,1.06,0Z"/><path class="cls-2" d="M20.12,8.59a14.14,14.14,0,0,1-1.76.53,10.15,10.15,0,0,0-1.81-3A9.87,9.87,0,0,1,20.12,8.59Z"/><path class="cls-2" d="M22.65,15.1a9.77,9.77,0,0,1-.52,3.12,7.86,7.86,0,0,1-3.35,1.57,17,17,0,0,0,.63-4.43,9.49,9.49,0,0,0,3.16-1.48A9.87,9.87,0,0,1,22.65,15.1Z"/><path class="cls-2" d="M3.24,15.1a9.87,9.87,0,0,1,.08-1.22,9.31,9.31,0,0,0,3.16,1.48,17,17,0,0,0,.62,4.43,7.75,7.75,0,0,1-3.34-1.58A9.4,9.4,0,0,1,3.24,15.1Z"/><path class="cls-2" d="M13.5,10.77a24.79,24.79,0,0,0,4.17-.4,16.09,16.09,0,0,1,.67,4.15,23,23,0,0,1-4.84.57Z"/><path class="cls-2" d="M13.5,9.7V5.44c1.55.28,2.91,1.76,3.79,3.91A26.13,26.13,0,0,1,13.5,9.7Z"/><path class="cls-2" d="M12.39,5.44V9.7a26.27,26.27,0,0,1-3.8-.35C9.48,7.2,10.83,5.72,12.39,5.44Z"/><path class="cls-2" d="M12.39,10.77v4.32a22.77,22.77,0,0,1-4.84-.56,15.82,15.82,0,0,1,.67-4.16A24.69,24.69,0,0,0,12.39,10.77Z"/><path class="cls-2" d="M6.5,14.24a6.29,6.29,0,0,1-2.93-1.61A9.52,9.52,0,0,1,5.06,9.46a13.53,13.53,0,0,0,2.12.69A16.19,16.19,0,0,0,6.5,14.24Z"/><path class="cls-2" d="M7.55,15.64a25.15,25.15,0,0,0,4.84.53v4.31a24.62,24.62,0,0,1-4.09-.41A15.9,15.9,0,0,1,7.55,15.64Z"/><path class="cls-2" d="M12.39,21.56v3.2c-1.46-.26-2.75-1.58-3.63-3.52A25.66,25.66,0,0,0,12.39,21.56Z"/><path class="cls-2" d="M13.5,24.76v-3.2a25.66,25.66,0,0,0,3.63-.32C16.25,23.18,15,24.5,13.5,24.76Z"/><path class="cls-2" d="M13.5,20.48V16.17a25.24,25.24,0,0,0,4.84-.53,15.9,15.9,0,0,1-.75,4.43A24.62,24.62,0,0,1,13.5,20.48Z"/><path class="cls-2" d="M19.39,14.23a17,17,0,0,0-.68-4.08,13.53,13.53,0,0,0,2.12-.69,9.43,9.43,0,0,1,1.49,3.17A6.63,6.63,0,0,1,19.39,14.23Z"/><path class="cls-2" d="M9.34,6.09a10,10,0,0,0-1.81,3,14.14,14.14,0,0,1-1.76-.53A9.78,9.78,0,0,1,9.34,6.09Z"/><path class="cls-2" d="M4.61,20.05A13.6,13.6,0,0,0,7.5,21a9.89,9.89,0,0,0,1.84,3.11A9.73,9.73,0,0,1,4.61,20.05Z"/><path class="cls-2" d="M16.55,24.11A10.08,10.08,0,0,0,18.39,21a13.8,13.8,0,0,0,2.89-.95A9.78,9.78,0,0,1,16.55,24.11Z"/><path class="cls-3" d="M19.81,3.22c.54.14.56.16.7.7a.55.55,0,0,0,.52.39.53.53,0,0,0,.52-.39c.15-.54.17-.56.71-.7a.55.55,0,0,0,.39-.52.53.53,0,0,0-.39-.52c-.54-.15-.56-.17-.71-.71a.56.56,0,0,0-1,0c-.14.54-.16.56-.7.71a.53.53,0,0,0-.39.52A.55.55,0,0,0,19.81,3.22Z"/><path class="cls-3" d="M2.84,23.75c-.53-.15-.55-.17-.7-.7a.56.56,0,0,0-1,0c-.15.53-.17.55-.7.7a.53.53,0,0,0-.4.52.54.54,0,0,0,.4.52c.53.15.55.17.7.7a.53.53,0,0,0,.52.4.54.54,0,0,0,.52-.4c.15-.53.17-.55.7-.7a.56.56,0,0,0,.4-.52A.55.55,0,0,0,2.84,23.75Z"/><path class="cls-3" d="M25.49,6l-.12,0a1.11,1.11,0,0,1,0-.13.56.56,0,0,0-1,0c0,.07,0,.11,0,.12l-.13,0a.54.54,0,0,0-.4.52.53.53,0,0,0,.4.52l.12,0a1.28,1.28,0,0,0,0,.13.53.53,0,0,0,.52.4.54.54,0,0,0,.52-.4.9.9,0,0,0,0-.12l.13,0a.53.53,0,0,0,.4-.52A.54.54,0,0,0,25.49,6Z"/><path class="cls-4" d="M22.57,13.88a6.86,6.86,0,0,1-1.15.7,9.61,9.61,0,0,1-2.62,5.15s0,0,0,.06a7.86,7.86,0,0,0,3.35-1.57,9.54,9.54,0,0,0,.44-4.34Z"/><path class="cls-4" d="M9.33,22.31a4.85,4.85,0,0,0,3.06,2.45V22.62l-.54,0A9.89,9.89,0,0,1,9.33,22.31Z"/><path class="cls-4" d="M13.5,24.76c1.46-.26,2.75-1.58,3.63-3.52l-.29,0a9.86,9.86,0,0,1-3.34,1.23Z"/><path class="cls-4" d="M21.56,13.25a3.56,3.56,0,0,0,.76-.62A9.74,9.74,0,0,0,21,9.77a9.55,9.55,0,0,1,.54,3.17C21.57,13.05,21.56,13.15,21.56,13.25Z"/><path class="cls-4" d="M4.61,20.05a9.73,9.73,0,0,0,4.73,4.06,9.31,9.31,0,0,1-1.51-2.35,9.85,9.85,0,0,1-2-1.23A9.53,9.53,0,0,1,4.61,20.05Z"/><path class="cls-4" d="M16.55,24.11A10.08,10.08,0,0,0,18.39,21a13.8,13.8,0,0,0,2.89-.95A9.78,9.78,0,0,1,16.55,24.11Z"/></g></g></svg>
