<?xml version="1.0" encoding="utf-8"?>
<!-- Generator: Adobe Illustrator 17.0.0, SVG Export Plug-In . SVG Version: 6.00 Build 0)  -->
<!DOCTYPE svg PUBLIC "-//W3C//DTD SVG 1.1//EN" "http://www.w3.org/Graphics/SVG/1.1/DTD/svg11.dtd">
<svg version="1.1" id="Layer_1" xmlns="http://www.w3.org/2000/svg" xmlns:xlink="http://www.w3.org/1999/xlink" x="0px" y="0px"
	 width="16px" height="26px" viewBox="0 0 16 26" enable-background="new 0 0 16 26" xml:space="preserve">
<g>
	<polygon fill="#FCB855" points="1.75,4 11.792,4 10.958,15.313 2.667,15.385 	"/>
	<path fill="#FFFFFF" d="M15.649,12.138c0.161-0.062,0.267-0.217,0.267-0.389V5.491c0-0.23-0.187-0.417-0.417-0.417h-2.975
		l0.057-0.804c0.001-0.005-0.002-0.01-0.002-0.014c0-0.005,0.003-0.01,0.003-0.016V2.571c0-0.231-0.187-0.417-0.417-0.417h-2.083
		V0.902c0-0.23-0.186-0.417-0.417-0.417H4.667c-0.23,0-0.417,0.187-0.417,0.417v1.252h-3.75c-0.23,0-0.416,0.187-0.416,0.417
		c0,0.111,0.044,0.217,0.122,0.295l1.557,1.559l0.793,11.121c-0.474,0.119-0.835,0.504-0.923,0.985l-1.542,8.492
		C0.05,25.25,0.2,25.467,0.426,25.508c0.025,0.004,0.049,0.007,0.074,0.007H3c0.158,0,0.302-0.089,0.373-0.231l0.718-1.438h6.568
		l0.718,1.438c0.07,0.141,0.215,0.231,0.373,0.231h2.5c0.23,0,0.417-0.187,0.416-0.417c0-0.025-0.002-0.05-0.007-0.074l-1.542-8.492
		c-0.107-0.595-0.625-1.028-1.23-1.028H11.78l0.138-1.928L15.649,12.138z M12.345,7.577h1.071v2.619l-1.288,0.43L12.345,7.577z
		 M12.064,11.527l1.901-0.634c0.17-0.057,0.285-0.216,0.284-0.396V7.16c0-0.231-0.186-0.417-0.416-0.417h-1.428l0.06-0.834h2.618
		v5.554l-3.099,1.194L12.064,11.527z M5.083,1.319H9.25v0.834H5.083V1.319z M2.34,3.823L1.506,2.988h10.243v0.835H2.34z
		 M9.166,13.167c-0.137-0.184-0.398-0.222-0.581-0.085c-0.001,0.001-0.002,0.001-0.002,0.001l-1.417,1.064L5.75,13.083
		c-0.186-0.146-0.459-0.108-0.597,0.088c-0.106,0.15-0.101,0.358,0.014,0.501c0.024,0.03,0.052,0.057,0.083,0.079l1.5,1.126v0.626
		H3.388L2.615,4.657h9.104l-0.773,10.846H7.583v-0.626l1.5-1.126c0.184-0.138,0.222-0.399,0.084-0.583
		C9.167,13.168,9.167,13.167,9.166,13.167L9.166,13.167z M11.887,16.337c0.202,0,0.374,0.144,0.41,0.343l1.452,8.001h-1.743
		l-0.718-1.438c-0.071-0.141-0.215-0.231-0.373-0.231H3.834c-0.158,0-0.302,0.089-0.373,0.231l-0.718,1.438H1l1.453-8.001
		c0.036-0.199,0.208-0.343,0.41-0.343H11.887L11.887,16.337z"/>
	<circle fill="#FFFFFF" cx="5.5" cy="21.746" r="0.417"/>
	<circle fill="#FFFFFF" cx="7.167" cy="21.746" r="0.417"/>
	<circle fill="#FFFFFF" cx="8.833" cy="21.746" r="0.417"/>
	<path fill="#FFFFFF" d="M7.167,17.158c-0.92,0-1.666,0.747-1.666,1.669c0,0.922,0.746,1.669,1.666,1.669
		c0.92,0,1.667-0.747,1.667-1.669C8.832,17.905,8.087,17.159,7.167,17.158z M7.167,19.661c-0.46,0-0.833-0.373-0.833-0.834
		c0-0.461,0.373-0.834,0.833-0.834c0.46,0,0.833,0.373,0.833,0.834C7.999,19.287,7.626,19.66,7.167,19.661z"/>
</g>
</svg>
