<svg xmlns="http://www.w3.org/2000/svg" viewBox="0 0 16.12 18.02"><defs><style>.cls-1{fill:#fcb855;}.cls-2{fill:#fff;}</style></defs><title>bom</title><g id="Layer_2" data-name="Layer 2"><g id="Layer_1-2" data-name="Layer 1"><path class="cls-1" d="M14.29,17.67h0a1.48,1.48,0,0,1-1.48-1.48V9h3v7.18A1.48,1.48,0,0,1,14.29,17.67Z"/><path class="cls-2" d="M15.77,8.66H13.16V.35A.33.33,0,0,0,12.94,0a.34.34,0,0,0-.38.07l-1,1-1-1a.37.37,0,0,0-.5,0l-1,1-1-1a.37.37,0,0,0-.5,0l-1,1-1-1a.36.36,0,0,0-.49,0l-1,1-1-1a.37.37,0,0,0-.5,0l-1,1L.6.1A.36.36,0,0,0,.11.1.34.34,0,0,0,0,.36V16.19A1.83,1.83,0,0,0,1.83,18H14.29a1.83,1.83,0,0,0,1.83-1.83V9A.35.35,0,0,0,15.77,8.66ZM.7,16.19V1.2l.65.65a.37.37,0,0,0,.5,0l1-1,1,1a.37.37,0,0,0,.5,0l1-1,1,1a.37.37,0,0,0,.5,0l1-1,1,1a.37.37,0,0,0,.5,0l1-1,1,1a.36.36,0,0,0,.49,0l.65-.65V9h0v7.17a1.82,1.82,0,0,0,.39,1.13h-11A1.14,1.14,0,0,1,.7,16.19Zm14.71,0a1.13,1.13,0,0,1-1.12,1.13h0a1.14,1.14,0,0,1-1.13-1.13V9.36h2.25Z"/><path class="cls-2" d="M6.58,7.38A.59.59,0,0,1,6,6.84a.36.36,0,1,0-.71,0,1.27,1.27,0,0,0,1,1.2v.29a.35.35,0,0,0,.35.35.35.35,0,0,0,.35-.35V8a1.27,1.27,0,0,0,1-1.2A1.3,1.3,0,0,0,6.58,5.59.59.59,0,0,1,6,5.05a.59.59,0,0,1,.63-.54.59.59,0,0,1,.63.54.36.36,0,0,0,.71,0,1.26,1.26,0,0,0-1-1.2V3.61a.34.34,0,0,0-.35-.35.35.35,0,0,0-.35.35v.24a1.26,1.26,0,0,0-1,1.2A1.29,1.29,0,0,0,6.58,6.29a.6.6,0,0,1,.63.55A.59.59,0,0,1,6.58,7.38Z"/><path class="cls-2" d="M9.43,6.29h.69a.35.35,0,0,0,.35-.35.35.35,0,0,0-.35-.35H9.43a.35.35,0,0,0-.35.35A.35.35,0,0,0,9.43,6.29Z"/><path class="cls-2" d="M3.73,5.59H3.05a.36.36,0,0,0-.36.35.35.35,0,0,0,.36.35h.68a.34.34,0,0,0,.35-.35A.35.35,0,0,0,3.73,5.59Z"/><path class="cls-2" d="M10.29,9.5H4.72a.36.36,0,0,0,0,.71h5.57a.36.36,0,1,0,0-.71Z"/><path class="cls-2" d="M2.87,9.5a.33.33,0,0,0-.25.11.31.31,0,0,0-.1.24.32.32,0,0,0,.1.25.33.33,0,0,0,.25.11.36.36,0,0,0,.35-.36.35.35,0,0,0-.1-.24A.36.36,0,0,0,2.87,9.5Z"/><path class="cls-2" d="M10.29,11.83H4.72a.34.34,0,0,0-.35.35.35.35,0,0,0,.35.35h5.57a.36.36,0,0,0,.36-.35A.35.35,0,0,0,10.29,11.83Z"/><path class="cls-2" d="M2.87,11.83a.34.34,0,0,0-.35.35.35.35,0,0,0,.1.25.36.36,0,0,0,.25.1.39.39,0,0,0,.25-.1.39.39,0,0,0,.1-.25.36.36,0,0,0-.1-.25A.35.35,0,0,0,2.87,11.83Z"/><path class="cls-2" d="M10.29,14.15H4.72a.35.35,0,0,0,0,.7h5.57a.35.35,0,1,0,0-.7Z"/><path class="cls-2" d="M2.87,14.15a.36.36,0,0,0-.25.1.36.36,0,0,0,0,.5.36.36,0,0,0,.25.1.39.39,0,0,0,.25-.1.36.36,0,0,0,0-.5A.39.39,0,0,0,2.87,14.15Z"/></g></g></svg>