<?xml version="1.0" encoding="utf-8"?>
<!-- Generator: Adobe Illustrator 17.0.0, SVG Export Plug-In . SVG Version: 6.00 Build 0)  -->
<!DOCTYPE svg PUBLIC "-//W3C//DTD SVG 1.1//EN" "http://www.w3.org/Graphics/SVG/1.1/DTD/svg11.dtd">
<svg version="1.1" id="Layer_1" xmlns="http://www.w3.org/2000/svg" xmlns:xlink="http://www.w3.org/1999/xlink" x="0px" y="0px"
	 width="22px" height="24px" viewBox="0 0 22 24" enable-background="new 0 0 22 24" xml:space="preserve">
<g>
	<path fill="#FCB855" d="M6.053,0.262h13.467c0.792,0,1.435,0.326,1.435,0.727v21.572c0,0.402-0.642,0.727-1.435,0.727H6.053
		c-0.792,0-1.435-0.326-1.435-0.727V0.989C4.618,0.587,5.26,0.262,6.053,0.262z"/>
	<g>
		<g>
			<path fill="#FFFFFF" d="M20.463,23.757H1.537c-0.612-0.001-1.108-0.497-1.109-1.11V1.353c0.001-0.613,0.497-1.109,1.109-1.11
				h18.926c0.612,0.001,1.108,0.497,1.109,1.11v21.294C21.571,23.26,21.075,23.756,20.463,23.757z M1.534,1.024
				c-0.18,0-0.326,0.146-0.326,0.326v21.3c0,0.18,0.146,0.326,0.326,0.326h18.933c0.18,0,0.326-0.146,0.326-0.326V1.35
				c0-0.18-0.146-0.326-0.326-0.326H1.534L1.534,1.024z"/>
			<path fill="#FFFFFF" d="M21.157,12.413H0.898c-0.208,0-0.391-0.158-0.404-0.366c-0.014-0.227,0.166-0.415,0.389-0.415h20.259
				c0.208,0,0.391,0.158,0.404,0.366C21.56,12.225,21.38,12.413,21.157,12.413z"/>
			<path fill="#FFFFFF" d="M13.188,7.316H8.858C8.103,7.315,7.492,6.703,7.491,5.948V5.378c0-0.209,0.157-0.392,0.365-0.404
				C8.083,4.96,8.271,5.14,8.271,5.364v0.584c0,0.324,0.263,0.587,0.587,0.588h4.331c0.324,0,0.586-0.263,0.587-0.588V5.378
				c0-0.209,0.157-0.392,0.365-0.404c0.226-0.014,0.414,0.166,0.414,0.39v0.584C14.554,6.703,13.942,7.315,13.188,7.316z"/>
			<path fill="#FFFFFF" d="M13.188,18.659H8.858c-0.754-0.001-1.366-0.613-1.366-1.368v-0.569c0-0.209,0.157-0.392,0.365-0.405
				c0.226-0.014,0.414,0.166,0.414,0.39v0.584c0,0.324,0.263,0.587,0.587,0.587h4.331c0.324,0,0.586-0.263,0.587-0.587v-0.569
				c0-0.209,0.157-0.392,0.365-0.405c0.226-0.014,0.414,0.166,0.414,0.39v0.584C14.554,18.046,13.942,18.658,13.188,18.659
				L13.188,18.659z"/>
		</g>
	</g>
</g>
</svg>
