<svg xmlns="http://www.w3.org/2000/svg" viewBox="0 0 23.86 19.48"><defs><style>.cls-1{fill:#a8c0e4;}.cls-2{fill:#88aad9;}.cls-3{fill:#fcb855;}.cls-4{fill:#fff;}</style></defs><title>camera</title><g id="Layer_2" data-name="Layer 2"><g id="Layer_1-2" data-name="Layer 1"><path class="cls-1" d="M21.63,4.49H18L16.42.59H11V19H21.62a1.5,1.5,0,0,0,1.5-1.5V6a1.5,1.5,0,0,0-.44-1.06A1.48,1.48,0,0,0,21.63,4.49Z"/><rect class="cls-2" x="2.76" y="2.52" width="1.56" height="1.97"/><circle class="cls-3" cx="11.76" cy="10.74" r="4.3"/><circle class="cls-1" cx="20.37" cy="7.22" r="1.17"/><path class="cls-4" d="M21.94,19.48h-20A1.92,1.92,0,0,1,0,17.56V5.86A1.9,1.9,0,0,1,1.9,4H5.28L6.76.25A.4.4,0,0,1,7.13,0h9.51A.39.39,0,0,1,17,.25L18.49,4H22a1.91,1.91,0,0,1,1.91,1.91V17.56A1.92,1.92,0,0,1,21.94,19.48ZM1.91,4.75A1.12,1.12,0,0,0,.79,5.86v11.7a1.14,1.14,0,0,0,1.13,1.13h20a1.14,1.14,0,0,0,1.13-1.13V5.87A1.12,1.12,0,0,0,22,4.75H18.38A.42.42,0,0,1,18,4.5L16.51.79h-9L6,4.5a.4.4,0,0,1-.37.25Z"/><path class="cls-4" d="M12,17.9a7.16,7.16,0,1,1,7.16-7.16A7.17,7.17,0,0,1,12,17.9ZM12,4.37a6.37,6.37,0,1,0,6.36,6.37A6.37,6.37,0,0,0,12,4.37Z"/><path class="cls-4" d="M12,15.51a4.78,4.78,0,1,1,4.77-4.77A4.77,4.77,0,0,1,12,15.51Zm0-8.75a4,4,0,1,0,4,4A4,4,0,0,0,12,6.76Z"/><path class="cls-4" d="M4.4,4.8H2.82a.41.41,0,0,1-.4-.4v-2a.39.39,0,0,1,.12-.28A.4.4,0,0,1,2.82,2H4.4a.4.4,0,0,1,.28.12.39.39,0,0,1,.12.28v2a.41.41,0,0,1-.4.4ZM3.22,4H4V2.8H3.22Z"/><path class="cls-4" d="M20.7,8.75a1.59,1.59,0,1,1,1.59-1.59A1.59,1.59,0,0,1,20.7,8.75Zm0-2.39a.8.8,0,0,0-.8.8.79.79,0,0,0,.8.79.79.79,0,0,0,.79-.79A.79.79,0,0,0,20.7,6.36Z"/></g></g></svg>