<?xml version="1.0" encoding="utf-8"?>
<!-- Generator: Adobe Illustrator 17.0.0, SVG Export Plug-In . SVG Version: 6.00 Build 0)  -->
<!DOCTYPE svg PUBLIC "-//W3C//DTD SVG 1.1//EN" "http://www.w3.org/Graphics/SVG/1.1/DTD/svg11.dtd">
<svg version="1.1" id="Layer_3" xmlns="http://www.w3.org/2000/svg" xmlns:xlink="http://www.w3.org/1999/xlink" x="0px" y="0px"
	 width="60px" height="60px" viewBox="0 0 60 60" enable-background="new 0 0 60 60" xml:space="preserve">
<g>
	<g opacity="0.6">
		
			<image overflow="visible" opacity="0.75" width="65" height="65" xlink:href="541B85EF.png"  transform="matrix(1 0 0 1 -0.5 -2.5)">
		</image>
		<g>
			<circle fill="#FFFFFF" cx="30" cy="29.999" r="16.579"/>
		</g>
	</g>
	<path fill="#414141" d="M29.015,33.815c0.038,0.369,0.349,0.643,0.712,0.643c0.025,0,0.05-0.001,0.075-0.004
		c0.394-0.041,0.68-0.393,0.639-0.786l-0.33-3.198c-0.041-0.394-0.393-0.68-0.786-0.639c-0.394,0.041-0.68,0.393-0.639,0.786
		L29.015,33.815z"/>
	<path fill="#414141" d="M33.499,34.454c0.025,0.003,0.05,0.004,0.074,0.004c0.363,0,0.674-0.274,0.712-0.643l0.33-3.198
		c0.041-0.394-0.245-0.746-0.639-0.786c-0.394-0.04-0.746,0.245-0.786,0.639l-0.33,3.198C32.819,34.061,33.106,34.413,33.499,34.454
		z"/>
	<path fill="#414141" d="M27.951,37.569c-1.223,0-2.218,0.995-2.218,2.218c0,1.223,0.995,2.219,2.218,2.219
		c1.223,0,2.218-0.995,2.218-2.219C30.169,38.564,29.174,37.569,27.951,37.569z M27.951,40.572c-0.433,0-0.785-0.352-0.785-0.785
		c0-0.433,0.352-0.785,0.785-0.785c0.433,0,0.785,0.352,0.785,0.785C28.736,40.22,28.384,40.572,27.951,40.572z"/>
	<path fill="#414141" d="M35.35,37.569c-1.223,0-2.218,0.995-2.218,2.218c0,1.223,0.995,2.219,2.218,2.219
		c1.223,0,2.218-0.995,2.218-2.219C37.568,38.564,36.573,37.569,35.35,37.569z M35.35,40.572c-0.433,0-0.785-0.352-0.785-0.785
		c0-0.433,0.352-0.785,0.785-0.785c0.433,0,0.785,0.352,0.785,0.785C36.135,40.22,35.783,40.572,35.35,40.572z"/>
	<path fill="#414141" d="M39.636,27.441c-0.136-0.175-0.345-0.278-0.567-0.278H24.786l-0.6-2.307
		c-0.082-0.316-0.367-0.536-0.694-0.536h-2.937c-0.396,0-0.717,0.321-0.717,0.717c0,0.396,0.321,0.717,0.717,0.717h2.383
		l0.594,2.286c0.003,0.014,0.007,0.029,0.011,0.043l2.212,8.506c0.082,0.316,0.367,0.536,0.694,0.536h10.402
		c0.326,0,0.611-0.22,0.694-0.536l2.218-8.527C39.819,27.844,39.772,27.616,39.636,27.441z M36.297,35.69h-9.294l-1.845-7.094
		h12.984L36.297,35.69z"/>
	<path fill="#414141" d="M28.687,23.136l4.197,0l-1.096,1.096c-0.28,0.28-0.28,0.734,0,1.013c0.14,0.14,0.323,0.21,0.507,0.21
		s0.367-0.07,0.507-0.21l2.318-2.318c0.28-0.28,0.28-0.734,0-1.013l-2.32-2.32c-0.28-0.28-0.734-0.28-1.013,0
		c-0.28,0.28-0.28,0.734,0,1.013l1.096,1.096l-4.195,0l0,0c-0.396,0-0.717,0.321-0.717,0.717
		C27.97,22.815,28.291,23.136,28.687,23.136z"/>
</g>
</svg>
