<?xml version="1.0" encoding="utf-8"?>
<!-- Generator: Adobe Illustrator 17.0.0, SVG Export Plug-In . SVG Version: 6.00 Build 0)  -->
<!DOCTYPE svg PUBLIC "-//W3C//DTD SVG 1.1//EN" "http://www.w3.org/Graphics/SVG/1.1/DTD/svg11.dtd">
<svg version="1.1" id="Layer_1" xmlns="http://www.w3.org/2000/svg" xmlns:xlink="http://www.w3.org/1999/xlink" x="0px" y="0px"
	 width="20px" height="28px" viewBox="0 0 20 28" enable-background="new 0 0 20 28" xml:space="preserve">
<g>
	<path fill="#FCB855" d="M16.125,27.813L3.688,27.75c0,0-3.375-4.625-2.688-10.75c0.481-4.286,16.292-4.205,17.25,0
		C19.688,23.313,16.125,27.813,16.125,27.813z"/>
	<path fill="#FFFFFF" stroke="#FFFFFF" stroke-width="0.25" stroke-miterlimit="10" d="M4.053,14.215
		c-0.15-0.036-0.312,0.024-0.361,0.135c-0.721,1.623-1.118,3.696-1.118,5.837c0,2.125,0.392,4.186,1.103,5.803
		c0.039,0.089,0.152,0.146,0.273,0.146c0.029,0,0.059-0.003,0.088-0.01c0.151-0.036,0.233-0.154,0.185-0.265
		c-0.694-1.576-1.075-3.591-1.075-5.673c0-2.099,0.387-4.125,1.09-5.707C4.285,14.37,4.203,14.251,4.053,14.215z"/>
	<path fill="#FFFFFF" stroke="#FFFFFF" stroke-width="0.25" stroke-miterlimit="10" d="M6.355,11.344
		c-0.789,0.314-1.524,0.997-2.127,1.978c-0.065,0.106-0.001,0.231,0.143,0.278c0.038,0.013,0.078,0.019,0.118,0.019
		c0.109,0,0.213-0.046,0.261-0.124c0.551-0.896,1.2-1.512,1.877-1.781c0.139-0.055,0.191-0.183,0.116-0.285
		C6.668,11.326,6.494,11.288,6.355,11.344z"/>
	<path fill="#FFFFFF" stroke="#FFFFFF" stroke-width="0.25" stroke-miterlimit="10" d="M11.023,16.871
		c-0.151-0.036-0.312,0.024-0.361,0.135c-0.589,1.325-0.913,3.017-0.913,4.765c0,1.734,0.32,3.416,0.901,4.736
		c0.039,0.089,0.152,0.146,0.272,0.146c0.029,0,0.059-0.003,0.088-0.01c0.151-0.036,0.233-0.154,0.185-0.265
		c-0.563-1.28-0.873-2.916-0.873-4.607c0-1.704,0.314-3.35,0.885-4.634C11.255,17.025,11.174,16.907,11.023,16.871z"/>
	<path fill="#FFFFFF" stroke="#FFFFFF" stroke-width="0.25" stroke-miterlimit="10" d="M12.856,14.536
		c-0.662,0.263-1.252,0.811-1.755,1.628c-0.065,0.106-0.001,0.23,0.143,0.278c0.038,0.013,0.078,0.019,0.118,0.019
		c0.109,0,0.213-0.046,0.261-0.124c0.443-0.721,0.964-1.217,1.505-1.432c0.139-0.055,0.191-0.183,0.115-0.285
		C13.169,14.519,12.995,14.481,12.856,14.536z"/>
	<path fill="#FFFFFF" stroke="#FFFFFF" stroke-width="0.5" stroke-miterlimit="10" d="M15.41,12.333V5.384h-3.258v6.413
		C11.4,10.46,10.458,9.475,9.395,8.923V0.412H5.524v8.46c-2.697,1.321-4.569,5.455-4.569,10.135c0,2.967,0.755,5.811,2.073,7.805
		c0.312,0.472,0.975,0.777,1.687,0.777h11.028c0.727,0,1.393-0.31,1.696-0.79c1.035-1.64,1.605-3.855,1.605-6.236
		C19.045,16.76,17.59,13.481,15.41,12.333z M3.544,26.627c-1.281-1.938-2.016-4.716-2.016-7.621c0-2.308,0.444-4.485,1.283-6.298
		c0.801-1.731,1.92-2.989,3.15-3.542l0.137-0.062V0.832h2.725v8.315L8.952,9.21c1.125,0.542,2.16,1.686,2.926,3.232
		c-2.049,1.23-3.446,4.472-3.446,8.12c0,2.585,0.672,4.965,1.854,6.605H4.716C4.221,27.168,3.761,26.956,3.544,26.627z
		 M16.92,26.621c-0.21,0.332-0.671,0.546-1.176,0.546h-4.805c-1.213-1.562-1.934-4.018-1.934-6.605c0-3.748,1.473-7.029,3.583-7.978
		l0.137-0.062V5.805h2.112v6.752l0.129,0.062c2.064,0.995,3.506,4.261,3.506,7.943C18.472,22.85,17.906,25.058,16.92,26.621z"/>
</g>
</svg>
