<?xml version="1.0" encoding="utf-8"?>
<!-- Generator: Adobe Illustrator 17.0.0, SVG Export Plug-In . SVG Version: 6.00 Build 0)  -->
<!DOCTYPE svg PUBLIC "-//W3C//DTD SVG 1.1//EN" "http://www.w3.org/Graphics/SVG/1.1/DTD/svg11.dtd">
<svg version="1.1" id="Layer_1" xmlns="http://www.w3.org/2000/svg" xmlns:xlink="http://www.w3.org/1999/xlink" x="0px" y="0px"
	 width="18px" height="25px" viewBox="0 0 18 25" enable-background="new 0 0 18 25" xml:space="preserve">
<g>
	<path fill="#FCB855" d="M7.324,2.435h5.944c0.35,0,0.633,0.285,0.633,0.636V21.95c0,0.351-0.284,0.636-0.633,0.636H7.324
		c-0.35,0-0.633-0.285-0.633-0.636V3.071C6.691,2.72,6.974,2.435,7.324,2.435z"/>
	<path fill="#FFFFFF" d="M17.139,23.809h-0.893V1.185c-0.003-0.444-0.364-0.802-0.808-0.801H2.514
		C2.07,0.382,1.709,0.74,1.706,1.185v18.181c0,0.223,0.181,0.404,0.404,0.404c0.223,0,0.404-0.181,0.404-0.404V1.191l12.924-0.007
		v22.624H2.514v-1.212c0-0.223-0.181-0.404-0.404-0.404c-0.223,0-0.404,0.181-0.404,0.404v1.212H0.861
		c-0.223,0-0.404,0.181-0.404,0.404c0,0.223,0.181,0.404,0.404,0.404h16.278c0.223,0,0.404-0.181,0.404-0.404
		C17.543,23.989,17.362,23.809,17.139,23.809z"/>
	<path fill="#FFFFFF" d="M1.957,21.353c0.023,0.012,0.047,0.02,0.073,0.024c0.027,0.004,0.054,0.007,0.081,0.008
		c0.107-0.002,0.209-0.043,0.287-0.117c0.036-0.039,0.065-0.084,0.085-0.133c0.061-0.15,0.028-0.323-0.085-0.44
		c-0.039-0.036-0.084-0.065-0.133-0.085c-0.049-0.021-0.101-0.032-0.153-0.032c-0.164-0.001-0.312,0.097-0.375,0.249
		c-0.063,0.152-0.028,0.326,0.089,0.442l0.061,0.048C1.907,21.332,1.931,21.344,1.957,21.353z"/>
	<path fill="#FFFFFF" d="M13.823,2.403H4.13c-0.223,0-0.404,0.181-0.404,0.404v19.79c0,0.223,0.181,0.404,0.404,0.404h9.693
		c0.223,0,0.404-0.181,0.404-0.404v-5.25c0.223,0,0.404-0.181,0.404-0.404V9.269c0-0.223-0.181-0.404-0.404-0.404V2.807
		C14.227,2.584,14.046,2.403,13.823,2.403z M13.015,8.865c-0.223,0-0.404,0.181-0.404,0.404c0,0.223,0.181,0.404,0.404,0.404h0.808
		v6.866h-0.808c-0.223,0-0.404,0.181-0.404,0.404c0,0.223,0.181,0.404,0.404,0.404h0.404v4.847H4.534V3.211h8.885v5.654H13.015z"/>
	<path fill="#FFFFFF" d="M5.341,5.23c0.107,0,0.21-0.043,0.286-0.118l0.808-0.808c0.153-0.158,0.151-0.41-0.005-0.566
		C6.274,3.582,6.022,3.58,5.864,3.733L5.056,4.541C4.94,4.656,4.906,4.83,4.968,4.981C5.031,5.132,5.178,5.23,5.341,5.23z"/>
	<path fill="#FFFFFF" d="M7.883,3.733L5.056,6.56c-0.105,0.101-0.147,0.252-0.11,0.393c0.037,0.141,0.147,0.251,0.288,0.288
		c0.141,0.037,0.291-0.005,0.393-0.11l2.827-2.827c0.153-0.158,0.151-0.41-0.005-0.566C8.293,3.582,8.042,3.58,7.883,3.733z"/>
</g>
</svg>
