<svg xmlns="http://www.w3.org/2000/svg" viewBox="0 0 17.6 17.62"><defs><style>.cls-1{fill:#fcb855;}.cls-2{fill:#fff;}</style></defs><title>export</title><g id="Layer_2" data-name="Layer 2"><g id="Layer_1-2" data-name="Layer 1"><path class="cls-1" d="M14.85,17.3H3A2.22,2.22,0,0,1,.77,15V2.68A2.22,2.22,0,0,1,3,.42h11.9A2.21,2.21,0,0,1,17,2.68V15A2.21,2.21,0,0,1,14.85,17.3Z"/><path class="cls-2" d="M15.07,17.62H2.53A2.53,2.53,0,0,1,0,15.09V.69A.69.69,0,0,1,.69,0h7.6a.16.16,0,0,1,.13.06A.7.7,0,0,1,8,1.34H2.51A1.17,1.17,0,0,0,1.34,2.51V15.06a1.17,1.17,0,0,0,1.17,1.17H15.07s1.17-.49,1.16-1.14V9.49a.69.69,0,0,1,.69-.68.64.64,0,0,1,.65.68v5.6C17.6,16.49,15.07,17.62,15.07,17.62Z"/><path class="cls-2" d="M16.23,5.34v-4h-4A.69.69,0,0,1,11.54.7a.67.67,0,0,1,.67-.7H16.9a.67.67,0,0,1,.67.67V5.36a.66.66,0,0,1-.7.67A.69.69,0,0,1,16.23,5.34Z"/><path class="cls-2" d="M10.14,8.13a.67.67,0,0,1-.48-.2.68.68,0,0,1,0-.95L16.44.2a.67.67,0,0,1,1,0,.69.69,0,0,1,0,1L10.62,7.93a.63.63,0,0,1-.48.2Z"/></g></g></svg>
