<?xml version="1.0" encoding="utf-8"?>
<!-- Generator: Adobe Illustrator 17.0.0, SVG Export Plug-In . SVG Version: 6.00 Build 0)  -->
<!DOCTYPE svg PUBLIC "-//W3C//DTD SVG 1.1//EN" "http://www.w3.org/Graphics/SVG/1.1/DTD/svg11.dtd">
<svg version="1.1" id="Layer_1" xmlns="http://www.w3.org/2000/svg" xmlns:xlink="http://www.w3.org/1999/xlink" x="0px" y="0px"
	 width="9px" height="22.611px" viewBox="0 0 9 22.611" enable-background="new 0 0 9 22.611" xml:space="preserve">
<g>
	<g>
		<path fill="#FCB855" d="M4.471,0.462h1.408c0.392,0,0.709,0.477,0.709,1.066v19.17c0,0.589-0.318,1.066-0.709,1.066H4.471V0.462z"
			/>
	</g>
	<path fill="#FCB855" stroke="#FFFFFF" stroke-miterlimit="10" d="M2.375,4.928H1.463C1,4.928,0.625,4.553,0.625,4.089V4.017
		c0-0.463,0.375-0.839,0.839-0.839h0.912V4.928z"/>
	<path fill="#FCB855" stroke="#FFFFFF" stroke-miterlimit="10" d="M6.75,4.928h0.912c0.463,0,0.839-0.375,0.839-0.839V4.017
		c0-0.463-0.375-0.839-0.839-0.839H6.75V4.928z"/>
	<path fill="#FCB855" stroke="#FFFFFF" stroke-miterlimit="10" d="M2.375,18.929H1.463c-0.463,0-0.839-0.375-0.839-0.839v-0.073
		c0-0.463,0.375-0.839,0.839-0.839h0.912V18.929z"/>
	<path fill="#FCB855" stroke="#FFFFFF" stroke-miterlimit="10" d="M6.75,18.929h0.912c0.463,0,0.839-0.375,0.839-0.839v-0.073
		c0-0.463-0.375-0.839-0.839-0.839H6.75V18.929z"/>
	<path fill="none" stroke="#FFFFFF" stroke-miterlimit="10" d="M6.5,20.994c0,0.47-0.142,0.53-0.625,0.53H3.25
		c-0.483,0-0.75-0.06-0.75-0.53V1.405c0-0.47,0.266-0.881,0.75-0.881h2.625c0.483,0,0.625,0.41,0.625,0.881V20.994z"/>
	<path fill="#FFFFFF" d="M4.092,3.441V2.965c0-0.276,0.18-0.517,0.418-0.534c0.259-0.019,0.474,0.219,0.474,0.514V3.46
		c0,0.295-0.215,0.533-0.474,0.515C4.271,3.958,4.092,3.716,4.092,3.441z"/>
	<path fill="#FFFFFF" d="M4.092,10.159V5.56c0-0.276,0.18-0.517,0.418-0.534C4.769,5.007,4.984,5.245,4.984,5.54v4.639
		c0,0.295-0.215,0.533-0.474,0.514C4.271,10.676,4.092,10.435,4.092,10.159z"/>
</g>
</svg>
