<?xml version="1.0" encoding="utf-8"?>
<!-- Generator: Adobe Illustrator 17.0.0, SVG Export Plug-In . SVG Version: 6.00 Build 0)  -->
<!DOCTYPE svg PUBLIC "-//W3C//DTD SVG 1.1//EN" "http://www.w3.org/Graphics/SVG/1.1/DTD/svg11.dtd">
<svg version="1.1" id="Layer_1" xmlns="http://www.w3.org/2000/svg" xmlns:xlink="http://www.w3.org/1999/xlink" x="0px" y="0px"
	 width="21px" height="21px" viewBox="0 0 21 21" enable-background="new 0 0 21 21" xml:space="preserve">
<g>
	<path fill="#FCB855" d="M17.375,15.292c0,0-0.021,2.479,0,4.583c1.25,0,2.667-0.833,2.375-2.667
		C19.458,15.375,17.625,14.917,17.375,15.292z"/>
	<path fill="#FCB855" d="M10.375,15.292c0,0-0.021,2.479,0,4.583c1.25,0,2.667-0.833,2.375-2.667
		C12.458,15.375,10.625,14.917,10.375,15.292z"/>
	<path fill="#FCB855" d="M3.375,15.292c0,0-0.021,2.479,0,4.583c1.25,0,2.667-0.833,2.375-2.667
		C5.458,15.375,3.625,14.917,3.375,15.292z"/>
	<path fill="#FCB855" d="M17.375,8.292c0,0-0.021,2.479,0,4.583c1.25,0,2.667-0.833,2.375-2.667S17.625,7.917,17.375,8.292z"/>
	<path fill="#FCB855" d="M10.375,8.292c0,0-0.021,2.479,0,4.583c1.25,0,2.667-0.833,2.375-2.667S10.625,7.917,10.375,8.292z"/>
	<path fill="#FCB855" d="M3.375,8.292c0,0-0.021,2.479,0,4.583c1.25,0,2.667-0.833,2.375-2.667S3.625,7.917,3.375,8.292z"/>
	<path fill="#FCB855" d="M17.375,1.292c0,0-0.021,2.479,0,4.583c1.25,0,2.667-0.833,2.375-2.667S17.625,0.917,17.375,1.292z"/>
	<path fill="#FCB855" d="M10.375,1.292c0,0-0.021,2.479,0,4.583c1.25,0,2.667-0.833,2.375-2.667S10.625,0.917,10.375,1.292z"/>
	<path fill="#FCB855" d="M3.375,1.292c0,0-0.021,2.479,0,4.583c1.25,0,2.667-0.833,2.375-2.667S3.625,0.917,3.375,1.292z"/>
	<g>
		<path fill="#FFFFFF" d="M3.429,20.071c-1.525,0-2.762-1.237-2.762-2.762s1.237-2.762,2.762-2.762S6.19,15.784,6.19,17.31
			C6.189,18.834,4.953,20.07,3.429,20.071L3.429,20.071z M3.429,15.238c-1.144,0-2.071,0.927-2.071,2.071
			c0,1.144,0.927,2.071,2.071,2.071S5.5,18.454,5.5,17.31C5.499,16.166,4.572,15.239,3.429,15.238z"/>
		<path fill="#FFFFFF" d="M10.333,20.071c-1.525,0-2.762-1.237-2.762-2.762s1.237-2.762,2.762-2.762s2.762,1.237,2.762,2.762
			C13.094,18.834,11.858,20.07,10.333,20.071L10.333,20.071z M10.333,15.238c-1.144,0-2.071,0.927-2.071,2.071
			c0,1.144,0.927,2.071,2.071,2.071s2.071-0.927,2.071-2.071C12.404,16.166,11.477,15.239,10.333,15.238z"/>
		<path fill="#FFFFFF" d="M17.238,20.071c-1.525,0-2.762-1.237-2.762-2.762s1.237-2.762,2.762-2.762S20,15.784,20,17.31
			C19.998,18.834,18.763,20.07,17.238,20.071L17.238,20.071z M17.238,15.238c-1.144,0-2.071,0.927-2.071,2.071
			c0,1.144,0.927,2.071,2.071,2.071s2.071-0.927,2.071-2.071C19.308,16.166,18.382,15.239,17.238,15.238L17.238,15.238z"/>
		<path fill="#FFFFFF" d="M3.429,13.167c-1.525,0-2.762-1.237-2.762-2.762s1.237-2.762,2.762-2.762S6.19,8.879,6.19,10.405
			C6.189,11.929,4.953,13.165,3.429,13.167L3.429,13.167z M3.429,8.333c-1.144,0-2.071,0.927-2.071,2.071s0.927,2.071,2.071,2.071
			S5.5,11.549,5.5,10.405C5.499,9.261,4.572,8.335,3.429,8.333L3.429,8.333z"/>
		<path fill="#FFFFFF" d="M10.333,13.167c-1.525,0-2.762-1.237-2.762-2.762s1.237-2.762,2.762-2.762s2.762,1.237,2.762,2.762
			C13.094,11.929,11.858,13.165,10.333,13.167L10.333,13.167z M10.333,8.333c-1.144,0-2.071,0.927-2.071,2.071
			s0.927,2.071,2.071,2.071s2.071-0.927,2.071-2.071C12.404,9.261,11.477,8.335,10.333,8.333L10.333,8.333z"/>
		<path fill="#FFFFFF" d="M17.238,13.167c-1.525,0-2.762-1.237-2.762-2.762s1.237-2.762,2.762-2.762S20,8.879,20,10.405
			C19.998,11.929,18.763,13.165,17.238,13.167L17.238,13.167z M17.238,8.333c-1.144,0-2.071,0.927-2.071,2.071
			s0.927,2.071,2.071,2.071s2.071-0.927,2.071-2.071C19.308,9.261,18.382,8.335,17.238,8.333L17.238,8.333z"/>
		<path fill="#FFFFFF" d="M3.429,6.262c-1.525,0-2.762-1.237-2.762-2.762s1.237-2.762,2.762-2.762S6.19,1.975,6.19,3.5
			C6.189,5.025,4.953,6.26,3.429,6.262L3.429,6.262z M3.429,1.429c-1.144,0-2.071,0.927-2.071,2.071s0.927,2.071,2.071,2.071
			S5.5,4.644,5.5,3.5C5.499,2.357,4.572,1.43,3.429,1.429z"/>
		<path fill="#FFFFFF" d="M10.333,6.262c-1.525,0-2.762-1.237-2.762-2.762s1.237-2.762,2.762-2.762s2.762,1.237,2.762,2.762
			C13.094,5.025,11.858,6.26,10.333,6.262L10.333,6.262z M10.333,1.429c-1.144,0-2.071,0.927-2.071,2.071s0.927,2.071,2.071,2.071
			s2.071-0.927,2.071-2.071C12.404,2.357,11.477,1.43,10.333,1.429z"/>
		<path fill="#FFFFFF" d="M17.238,6.262c-1.525,0-2.762-1.237-2.762-2.762s1.237-2.762,2.762-2.762S20,1.975,20,3.5
			C19.998,5.025,18.763,6.26,17.238,6.262L17.238,6.262z M17.238,1.429c-1.144,0-2.071,0.927-2.071,2.071s0.927,2.071,2.071,2.071
			S19.31,4.644,19.31,3.5C19.308,2.357,18.382,1.43,17.238,1.429L17.238,1.429z"/>
	</g>
</g>
</svg>
