<svg xmlns="http://www.w3.org/2000/svg" viewBox="0 0 21 21"><defs><style>.cls-1{fill:#fcb855;}.cls-2{fill:#fff;}</style></defs><title>settings</title><g id="Layer_2" data-name="Layer 2"><g id="Layer_1-2" data-name="Layer 1"><path class="cls-1" d="M17.46,9.23l-1-.17a.58.58,0,0,1-.45-.4,5.24,5.24,0,0,0-.35-.85.59.59,0,0,1,0-.6l.62-.86a.53.53,0,0,0-.06-.68l-.49-.49-.49-.5a.53.53,0,0,0-.68,0l-.83.6a.61.61,0,0,1-.61,0,4.26,4.26,0,0,0-.85-.36.58.58,0,0,1-.39-.45l-.18-1A.53.53,0,0,0,11.22,3H9.83a.54.54,0,0,0-.53.45l-.17,1a.59.59,0,0,1-.41.45,4.52,4.52,0,0,0-.88.36.56.56,0,0,1-.6,0l-.85-.61a.53.53,0,0,0-.69.06l-.49.49-.49.49a.53.53,0,0,0-.06.68l.61.85a.59.59,0,0,1,0,.6A6,6,0,0,0,5,8.62.56.56,0,0,1,4.5,9l-1,.18A.56.56,0,0,0,3,9.7v1.39a.54.54,0,0,0,.44.53l1,.18a.56.56,0,0,1,.45.39,5,5,0,0,0,.35.86.57.57,0,0,1,0,.59l-.6.84a.53.53,0,0,0,.05.69l.49.49.49.49a.53.53,0,0,0,.68.06l.86-.61a.59.59,0,0,1,.6,0,4.34,4.34,0,0,0,.86.36.6.6,0,0,1,.39.45l.17,1a.54.54,0,0,0,.52.44h1.39a.53.53,0,0,0,.53-.45l.18-1a.6.6,0,0,1,.39-.45,5.85,5.85,0,0,0,.82-.33.57.57,0,0,1,.6,0l.86.62a.53.53,0,0,0,.69-.06l.49-.49.49-.49a.52.52,0,0,0,0-.68l-.59-.84a.57.57,0,0,1,0-.6,7,7,0,0,0,.36-.85.58.58,0,0,1,.45-.39l1-.18a.54.54,0,0,0,.45-.53V9.77A.57.57,0,0,0,17.46,9.23ZM13,10.38a2.53,2.53,0,1,1-2.56-2.5A2.53,2.53,0,0,1,13,10.38Z"/><path class="cls-2" d="M3.69,16.24a1.67,1.67,0,0,0-.82.21A9.67,9.67,0,0,1,10.5.82,9.57,9.57,0,0,1,12.43,1a.4.4,0,0,0,.48-.32.4.4,0,0,0-.32-.48A10.48,10.48,0,0,0,3.08,3.08,10.4,10.4,0,0,0,0,10.5,10.53,10.53,0,0,0,2.26,17a1.71,1.71,0,0,0,.22,2.17,1.67,1.67,0,0,0,1.21.51,1.73,1.73,0,0,0,1.22-3A1.72,1.72,0,0,0,3.69,16.24Zm.64,2.36a.91.91,0,0,1-.64.27.89.89,0,0,1-.63-.27A.91.91,0,0,1,2.79,18a.93.93,0,0,1,.27-.64.88.88,0,0,1,.63-.26.9.9,0,0,1,.64.26A.93.93,0,0,1,4.6,18,.91.91,0,0,1,4.33,18.6Z"/><path class="cls-2" d="M18.74,4a1.72,1.72,0,0,0-.22-2.17,1.67,1.67,0,0,0-1.21-.51A1.74,1.74,0,0,0,15.58,3a1.72,1.72,0,0,0,1.73,1.72,1.67,1.67,0,0,0,.82-.21A9.67,9.67,0,0,1,10.5,20.18,9.45,9.45,0,0,1,8.59,20a.41.41,0,0,0-.16.81,11,11,0,0,0,2.07.2A10.52,10.52,0,0,0,21,10.5,10.53,10.53,0,0,0,18.74,4Zm-2.07-.31A.93.93,0,0,1,16.4,3a.92.92,0,0,1,.91-.91.91.91,0,0,1,.63,1.55.88.88,0,0,1-.63.26A.9.9,0,0,1,16.67,3.68Z"/><path class="cls-2" d="M8.81,17.55a.41.41,0,0,0,.41.41h2.56a.41.41,0,0,0,.41-.41v-.79a6.51,6.51,0,0,0,1.54-.64l.56.56a.4.4,0,0,0,.29.12.38.38,0,0,0,.29-.12l1.82-1.81a.41.41,0,0,0,0-.58l-.56-.56a6.65,6.65,0,0,0,.63-1.54h.8a.41.41,0,0,0,.41-.41V9.21a.42.42,0,0,0-.41-.41h-.8a6.65,6.65,0,0,0-.63-1.54l.55-.55a.4.4,0,0,0,.12-.29.38.38,0,0,0-.12-.29L14.87,4.31a.41.41,0,0,0-.58,0l-.56.56a6.51,6.51,0,0,0-1.54-.64V3.45A.41.41,0,0,0,11.78,3H9.22a.41.41,0,0,0-.41.41v.78a6.51,6.51,0,0,0-1.54.64l-.56-.56a.41.41,0,0,0-.58,0L4.32,6.13a.38.38,0,0,0-.12.29.4.4,0,0,0,.12.29l.55.55A6.65,6.65,0,0,0,4.24,8.8H3.45A.41.41,0,0,0,3,9.21v2.57a.45.45,0,0,0,.12.29.42.42,0,0,0,.29.12h.8a6.65,6.65,0,0,0,.63,1.54l-.56.56a.41.41,0,0,0,0,.58l1.82,1.81a.38.38,0,0,0,.29.12h0a.4.4,0,0,0,.29-.12l.56-.56a6.51,6.51,0,0,0,1.54.64ZM7.43,15.26a.41.41,0,0,0-.51.05l-.5.5L5.18,14.58l.5-.5a.41.41,0,0,0,.06-.51A5.64,5.64,0,0,1,5,11.69a.41.41,0,0,0-.4-.32H3.85V9.62h.7A.41.41,0,0,0,5,9.3a5.5,5.5,0,0,1,.78-1.87.42.42,0,0,0-.06-.52l-.49-.49L6.42,5.18l.5.5a.39.39,0,0,0,.51.05A5.57,5.57,0,0,1,9.3,5a.42.42,0,0,0,.33-.4v-.7h1.74v.7a.42.42,0,0,0,.33.4,5.57,5.57,0,0,1,1.87.77.39.39,0,0,0,.51-.05l.5-.5,1.23,1.24-.49.49a.42.42,0,0,0-.06.52A5.5,5.5,0,0,1,16,9.3a.41.41,0,0,0,.4.32h.71v1.75h-.71a.41.41,0,0,0-.4.32,5.64,5.64,0,0,1-.78,1.88.41.41,0,0,0,.06.51l.5.5-1.24,1.23-.5-.5a.41.41,0,0,0-.51-.05A5.8,5.8,0,0,1,11.7,16a.41.41,0,0,0-.33.4v.7H9.63v-.7A.41.41,0,0,0,9.3,16,5.8,5.8,0,0,1,7.43,15.26Z"/><path class="cls-2" d="M13.89,10.5a3.39,3.39,0,1,0-3.39,3.39A3.39,3.39,0,0,0,13.89,10.5Zm-6,0a2.57,2.57,0,1,1,2.57,2.57A2.57,2.57,0,0,1,7.93,10.5Z"/><path class="cls-2" d="M14.28,1.55a.42.42,0,0,0,.29-.12.45.45,0,0,0,.12-.29.45.45,0,0,0-.12-.29.42.42,0,0,0-.29-.12A.38.38,0,0,0,14,.85a.41.41,0,0,0,0,.58A.38.38,0,0,0,14.28,1.55Z"/><path class="cls-2" d="M6.74,19.46a.4.4,0,0,0-.29.12.43.43,0,0,0-.12.29.47.47,0,0,0,.12.29.45.45,0,0,0,.29.12A.43.43,0,0,0,7,20.16a.42.42,0,0,0,.12-.29.41.41,0,0,0-.41-.41Z"/></g></g></svg>