<?xml version="1.0" encoding="utf-8"?>
<!-- Generator: Adobe Illustrator 17.0.0, SVG Export Plug-In . SVG Version: 6.00 Build 0)  -->
<!DOCTYPE svg PUBLIC "-//W3C//DTD SVG 1.1//EN" "http://www.w3.org/Graphics/SVG/1.1/DTD/svg11.dtd">
<svg version="1.1" id="Layer_1" xmlns="http://www.w3.org/2000/svg" xmlns:xlink="http://www.w3.org/1999/xlink" x="0px" y="0px"
	 width="26px" height="26px" viewBox="0 0 26 26" enable-background="new 0 0 26 26" xml:space="preserve">
<g>
	<rect x="8" y="1" fill="#FCB855" width="9" height="22"/>
	<rect x="17" y="3" fill="#FCB855" width="6" height="17"/>
	<polygon fill="#FCB855" points="15.188,25.125 15.625,21.188 12.844,17.781 16.375,17.5 18.938,13.406 21,17.25 24.125,17.625 
		25,18 22.25,20.875 22.813,25.25 19.188,23 	"/>
	<path fill="#FFFFFF" d="M25.4,17.836c-0.166-0.525-0.655-0.881-1.205-0.875h-0.553V3.422c0-0.233-0.189-0.423-0.423-0.423h-5.916
		V0.883c0-0.233-0.189-0.423-0.422-0.423H0.823c-0.233,0-0.423,0.189-0.423,0.423v22.002c0,0.233,0.189,0.423,0.423,0.423h13.961
		l-0.211,0.652c-0.171,0.523,0.014,1.097,0.459,1.421c0.445,0.324,1.048,0.324,1.492-0.001l2.215-1.615
		c0.15-0.11,0.353-0.11,0.502,0l2.219,1.616c0.442,0.329,1.048,0.329,1.491,0c0.45-0.32,0.637-0.898,0.46-1.421l-0.848-2.617
		c-0.056-0.173,0.007-0.363,0.155-0.468l2.223-1.617C25.391,18.938,25.577,18.36,25.4,17.836z M22.796,3.845v13.116h-1.348
		c-0.044,0-0.088-0.007-0.131-0.021c-0.127-0.043-0.227-0.143-0.27-0.27l-0.849-2.615c-0.171-0.521-0.657-0.873-1.204-0.873
		c-0.548,0-1.033,0.352-1.204,0.873l-0.486,1.495v-4.089h3.381c0.233,0,0.422-0.189,0.422-0.423s-0.189-0.423-0.422-0.423h-3.381
		V8.923h3.381c0.233,0,0.422-0.189,0.422-0.423c0-0.233-0.189-0.423-0.422-0.423h-3.381V6.384h3.381
		c0.233,0,0.422-0.189,0.422-0.423c0-0.234-0.189-0.423-0.422-0.423h-3.381V3.845H22.796z M1.246,22.462V1.307h15.212v15.655h-2.666
		c-0.55-0.001-1.038,0.353-1.209,0.876c-0.17,0.524,0.016,1.098,0.461,1.421l2.222,1.616c0.149,0.106,0.212,0.296,0.156,0.471
		l-0.363,1.117H1.246z M24.444,18.574l-2.223,1.616c-0.445,0.322-0.632,0.894-0.461,1.416l0.849,2.615
		c0.058,0.175-0.004,0.367-0.152,0.475c-0.149,0.109-0.35,0.108-0.498-0.001l-2.221-1.617c-0.446-0.321-1.047-0.321-1.493,0
		l-2.218,1.616c-0.148,0.109-0.35,0.11-0.499,0.001c-0.149-0.108-0.21-0.3-0.153-0.475l0.849-2.613
		c0.171-0.523-0.016-1.097-0.462-1.418l-2.221-1.614c-0.15-0.108-0.213-0.3-0.156-0.475c0.057-0.175,0.221-0.293,0.405-0.292h2.746
		c0.176,0.001,0.35-0.036,0.51-0.111l0.008-0.005l0.008-0.003c0.006-0.003,0.01-0.008,0.016-0.011
		c0.315-0.146,0.555-0.417,0.664-0.747l0.849-2.615c0.057-0.173,0.219-0.291,0.401-0.291c0.183,0,0.345,0.118,0.402,0.291
		l0.85,2.617c0.171,0.521,0.656,0.874,1.203,0.874h2.747c0.184-0.001,0.348,0.117,0.405,0.292
		C24.657,18.275,24.594,18.467,24.444,18.574L24.444,18.574z"/>
	<path fill="#FFFFFF" d="M4.204,4.691H13.5c0.233,0,0.422-0.189,0.422-0.423c0-0.233-0.189-0.423-0.422-0.423H4.204
		c-0.233,0-0.423,0.19-0.423,0.423C3.781,4.502,3.97,4.691,4.204,4.691z"/>
	<path fill="#FFFFFF" d="M4.204,8.077H13.5c0.233,0,0.422-0.189,0.422-0.423c0-0.233-0.189-0.423-0.422-0.423H4.204
		c-0.233,0-0.423,0.189-0.423,0.423C3.781,7.887,3.97,8.077,4.204,8.077z"/>
	<path fill="#FFFFFF" d="M4.204,11.461H13.5c0.233,0,0.422-0.189,0.422-0.423s-0.189-0.423-0.422-0.423H4.204
		c-0.233,0-0.423,0.189-0.423,0.423S3.97,11.461,4.204,11.461z"/>
	<path fill="#FFFFFF" d="M13.922,14.423c0-0.233-0.189-0.423-0.422-0.423H4.204c-0.233,0-0.423,0.189-0.423,0.423
		c0,0.234,0.189,0.423,0.423,0.423H13.5C13.733,14.846,13.922,14.657,13.922,14.423z"/>
</g>
</svg>
