<?xml version="1.0" encoding="utf-8"?>
<!-- Generator: Adobe Illustrator 17.0.0, SVG Export Plug-In . SVG Version: 6.00 Build 0)  -->
<!DOCTYPE svg PUBLIC "-//W3C//DTD SVG 1.1//EN" "http://www.w3.org/Graphics/SVG/1.1/DTD/svg11.dtd">
<svg version="1.1" id="Layer_1" xmlns="http://www.w3.org/2000/svg" xmlns:xlink="http://www.w3.org/1999/xlink" x="0px" y="0px"
	 width="54.36px" height="51.59px" viewBox="0 0 54.36 51.59" enable-background="new 0 0 54.36 51.59" xml:space="preserve">
<g>
	<path fill="#A8C0E4" d="M46.925,42.038L27.179,50.53V26.539l19.746-8.493V42.038z"/>
	<path fill="#A8C0E4" d="M27.184,9.552l19.745,8.494l-19.745,8.492L7.438,18.047L27.184,9.552z"/>
	<path fill="#FFFFFF" d="M37.348,36.729c-0.586,0-1.062,0.476-1.062,1.061c0,0.586,0.476,1.063,1.062,1.063s1.062-0.477,1.062-1.063
		C38.409,37.206,37.934,36.729,37.348,36.729z"/>
	<path fill="#FFFFFF" d="M28.219,18.047c0-0.587-0.478-1.063-1.063-1.063c-0.586,0-1.062,0.476-1.062,1.063
		c0,0.585,0.476,1.062,1.062,1.062C27.741,19.108,28.219,18.632,28.219,18.047z"/>
	<path fill="#FFFFFF" d="M16.965,38.853c0.587,0,1.062-0.477,1.062-1.063c0-0.585-0.475-1.061-1.062-1.061
		c-0.586,0-1.061,0.476-1.061,1.061C15.904,38.377,16.379,38.853,16.965,38.853z"/>
	<path fill="#FFFFFF" d="M53.727,43.897l-5.74-2.55V18.047c0-0.421-0.252-0.811-0.651-0.979L28.242,8.853V1.094
		c0-0.533-0.379-1.009-0.906-1.084c-0.656-0.095-1.218,0.412-1.218,1.05v7.793L7.024,17.067c-0.38,0.157-0.651,0.541-0.651,0.979
		v23.301l-5.739,2.55c-0.535,0.239-0.777,0.866-0.538,1.401c0.235,0.533,0.86,0.779,1.399,0.539l5.947-2.642l19.319,8.31
		c0.255,0.11,0.567,0.117,0.838,0l19.319-8.31l5.945,2.642c0.541,0.241,1.166-0.008,1.401-0.539
		C54.504,44.763,54.262,44.136,53.727,43.897z M26.118,11.166v2.6c0,0.533,0.377,1.009,0.903,1.084
		c0.656,0.095,1.221-0.412,1.221-1.05v-2.634l15.996,6.881l-17.06,7.337l-17.058-7.337L26.118,11.166z M14.078,39.085
		c-0.238-0.535-0.866-0.776-1.401-0.538l-4.183,1.858V19.658l17.624,7.58v21.68l-16.034-6.896l3.455-1.536
		C14.075,40.248,14.316,39.622,14.078,39.085z M28.242,48.918v-21.68l17.621-7.581v20.748l-4.181-1.858
		c-0.536-0.237-1.163,0.003-1.402,0.539c-0.237,0.536,0.004,1.162,0.539,1.401l3.456,1.535L28.242,48.918z"/>
</g>
</svg>
