<?xml version="1.0" encoding="utf-8"?>
<!-- Generator: Adobe Illustrator 17.0.0, SVG Export Plug-In . SVG Version: 6.00 Build 0)  -->
<!DOCTYPE svg PUBLIC "-//W3C//DTD SVG 1.1//EN" "http://www.w3.org/Graphics/SVG/1.1/DTD/svg11.dtd">
<svg version="1.1" id="Layer_1" xmlns="http://www.w3.org/2000/svg" xmlns:xlink="http://www.w3.org/1999/xlink" x="0px" y="0px"
	 width="40px" height="30px" viewBox="0 0 40 30" enable-background="new 0 0 40 30" xml:space="preserve">
<g>
	<path fill="#FCB855" stroke="#010101" stroke-miterlimit="10" d="M31.262,23.268c-12.401,0-17.241,0.014-22.453-0.058
		c0-11.04,10.053-22.561,22.453-22.561C31.262,13.407,31.262,14.016,31.262,23.268z"/>
	<rect x="4" y="23" fill="#A8C0E4" width="33" height="6"/>
	<line stroke="#000000" stroke-width="1.25" stroke-miterlimit="10" x1="0.8" y1="23.353" x2="39.235" y2="23.353"/>
	<line stroke="#000000" stroke-width="1.25" stroke-miterlimit="10" x1="0.8" y1="29.35" x2="39.235" y2="29.35"/>
	<polyline stroke="#000000" stroke-miterlimit="10" points="0.8,28.922 3.671,28.922 3.671,23.782 0.8,23.782 	"/>
	<polyline stroke="#000000" stroke-miterlimit="10" points="39.233,28.922 36.333,28.922 36.333,23.782 39.233,23.782 	"/>
	<g>
		<defs>
			<rect id="SVGID_1_" x="0.753" y="23.996" width="2.64" height="4.676"/>
		</defs>
		<clipPath id="SVGID_2_">
			<use xlink:href="#SVGID_1_"  overflow="visible"/>
		</clipPath>
		<g clip-path="url(#SVGID_2_)">
			<line stroke="#FFFFFF" stroke-width="0.25" stroke-miterlimit="10" x1="-0.836" y1="25.407" x2="3.394" y2="24.374"/>
			<line stroke="#FFFFFF" stroke-width="0.25" stroke-miterlimit="10" x1="-1.038" y1="24.913" x2="3.191" y2="23.881"/>
			<line stroke="#FFFFFF" stroke-width="0.25" stroke-miterlimit="10" x1="-0.633" y1="25.9" x2="3.597" y2="24.868"/>
			<line stroke="#FFFFFF" stroke-width="0.25" stroke-miterlimit="10" x1="-0.43" y1="26.394" x2="3.799" y2="25.361"/>
			<line stroke="#FFFFFF" stroke-width="0.25" stroke-miterlimit="10" x1="-0.228" y1="26.887" x2="4.002" y2="25.855"/>
			<line stroke="#FFFFFF" stroke-width="0.25" stroke-miterlimit="10" x1="-0.025" y1="27.381" x2="4.205" y2="26.348"/>
			<line stroke="#FFFFFF" stroke-width="0.25" stroke-miterlimit="10" x1="0.178" y1="27.874" x2="4.408" y2="26.842"/>
			<line stroke="#FFFFFF" stroke-width="0.25" stroke-miterlimit="10" x1="0.38" y1="28.367" x2="4.61" y2="27.335"/>
			<line stroke="#FFFFFF" stroke-width="0.25" stroke-miterlimit="10" x1="0.583" y1="28.861" x2="4.813" y2="27.829"/>
		</g>
	</g>
	<g>
		<defs>
			<rect id="SVGID_3_" x="36.607" y="24.014" width="2.64" height="4.676"/>
		</defs>
		<clipPath id="SVGID_4_">
			<use xlink:href="#SVGID_3_"  overflow="visible"/>
		</clipPath>
		<g clip-path="url(#SVGID_4_)">
			<line stroke="#FCFCFC" stroke-width="0.25" stroke-miterlimit="10" x1="35.018" y1="25.425" x2="39.248" y2="24.392"/>
			<line stroke="#FCFCFC" stroke-width="0.25" stroke-miterlimit="10" x1="34.815" y1="24.931" x2="39.045" y2="23.899"/>
			<line stroke="#FCFCFC" stroke-width="0.25" stroke-miterlimit="10" x1="35.221" y1="25.918" x2="39.451" y2="24.886"/>
			<line stroke="#FCFCFC" stroke-width="0.25" stroke-miterlimit="10" x1="35.423" y1="26.411" x2="39.653" y2="25.379"/>
			<line stroke="#FCFCFC" stroke-width="0.25" stroke-miterlimit="10" x1="35.626" y1="26.905" x2="39.856" y2="25.873"/>
			<line stroke="#FCFCFC" stroke-width="0.25" stroke-miterlimit="10" x1="35.829" y1="27.398" x2="40.059" y2="26.366"/>
			<line stroke="#FCFCFC" stroke-width="0.25" stroke-miterlimit="10" x1="36.032" y1="27.892" x2="40.261" y2="26.859"/>
			<line stroke="#FCFCFC" stroke-width="0.25" stroke-miterlimit="10" x1="36.234" y1="28.385" x2="40.464" y2="27.353"/>
			<line stroke="#FCFCFC" stroke-width="0.25" stroke-miterlimit="10" x1="36.437" y1="28.879" x2="40.667" y2="27.846"/>
		</g>
	</g>
</g>
</svg>
