<?xml version="1.0" encoding="utf-8"?>
<!-- Generator: Adobe Illustrator 17.0.0, SVG Export Plug-In . SVG Version: 6.00 Build 0)  -->
<!DOCTYPE svg PUBLIC "-//W3C//DTD SVG 1.1//EN" "http://www.w3.org/Graphics/SVG/1.1/DTD/svg11.dtd">
<svg version="1.1" id="Layer_1" xmlns="http://www.w3.org/2000/svg" xmlns:xlink="http://www.w3.org/1999/xlink" x="0px" y="0px"
	 width="78px" height="78px" viewBox="0 0 78 78" enable-background="new 0 0 78 78" xml:space="preserve">
<g>
	<path fill="none" stroke="#231F20" stroke-width="2" stroke-miterlimit="10" d="M22.757,38.965H4.956
		c-1.632,0-2.955-1.324-2.955-2.955V4.766c0-1.632,1.324-2.955,2.955-2.955h25.247c1.632,0,2.955,1.324,2.955,2.955v31.243
		c0,1.632-1.324,2.955-2.955,2.955H22.757"/>
	<path fill="none" stroke="#231F20" stroke-width="2" stroke-miterlimit="10" d="M76.183,73.162c0,1.633-1.324,2.957-2.955,2.957
		H47.98c-1.632,0-2.955-1.324-2.955-2.957V41.92c0-1.631,1.324-2.955,2.955-2.955h25.247c1.632,0,2.955,1.324,2.955,2.955V73.162z"
		/>
	<path fill="none" stroke="#231F20" stroke-width="2" stroke-miterlimit="10" d="M77,22.502c0,1.631-1.324,2.955-2.955,2.955H49.044
		c-1.632,0-2.955-1.324-2.955-2.955V4.766c0-1.632,1.324-2.955,2.955-2.955h25.001C75.676,1.811,77,3.135,77,4.766V22.502z"/>
	<path fill="none" stroke="#231F20" stroke-width="2" stroke-miterlimit="10" d="M32.173,73.162c0,1.633-1.324,2.957-2.959,2.957
		H4.217c-1.632,0-2.955-1.324-2.955-2.957V55.428c0-1.632,1.324-2.955,2.955-2.955h24.997c1.635,0,2.959,1.324,2.959,2.955V73.162z"
		/>
</g>
</svg>
