<?xml version="1.0" encoding="utf-8"?>
<!-- Generator: Adobe Illustrator 17.0.0, SVG Export Plug-In . SVG Version: 6.00 Build 0)  -->
<!DOCTYPE svg PUBLIC "-//W3C//DTD SVG 1.1//EN" "http://www.w3.org/Graphics/SVG/1.1/DTD/svg11.dtd">
<svg version="1.1" id="Layer_1" xmlns="http://www.w3.org/2000/svg" xmlns:xlink="http://www.w3.org/1999/xlink" x="0px" y="0px"
	 width="84px" height="84px" viewBox="0 0 84 84" enable-background="new 0 0 84 84" xml:space="preserve">
<g>
	<g>
		<path fill="none" stroke="#fff" stroke-width="2" stroke-miterlimit="10" d="M42.252,82.306c-2.343,0-4.079-1.917-5.758-3.773
			c-0.842-1.144-1.939-2.077-3.203-2.724c-1.478-0.089-2.956,0.173-4.314,0.763c-2.337,0.746-4.749,1.516-6.702,0.386
			c-1.982-1.146-2.522-3.647-3.043-6.064c-0.161-1.446-0.659-2.834-1.456-4.051c-1.218-0.798-2.607-1.297-4.054-1.458
			c-2.416-0.522-4.915-1.065-6.062-3.042c-1.13-1.954-0.36-4.367,0.386-6.702c0.591-1.357,0.852-2.835,0.763-4.312
			c-0.647-1.265-1.579-2.363-2.724-3.205c-1.856-1.679-3.773-3.415-3.773-5.758c0-2.343,1.917-4.079,3.773-5.758
			c1.144-0.842,2.077-1.939,2.724-3.203c0.09-1.478-0.172-2.956-0.763-4.314c-0.746-2.335-1.516-4.749-0.386-6.702
			c1.146-1.982,3.647-2.522,6.064-3.043c1.446-0.161,2.834-0.66,4.051-1.457c0.8-1.217,1.302-2.606,1.464-4.054
			c0.522-2.416,1.065-4.915,3.042-6.062c1.956-1.132,4.369-0.358,6.702,0.386c1.358,0.59,2.835,0.851,4.312,0.763
			c1.265-0.647,2.362-1.579,3.205-2.724c1.672-1.856,3.408-3.773,5.751-3.773c2.343,0,4.079,1.917,5.758,3.773
			c0.842,1.144,1.939,2.077,3.203,2.724c1.478,0.089,2.956-0.173,4.314-0.763c2.337-0.746,4.749-1.516,6.702-0.386
			c1.982,1.146,2.522,3.647,3.043,6.064c0.161,1.446,0.659,2.834,1.456,4.051c1.217,0.8,2.606,1.302,4.054,1.464
			c2.417,0.522,4.915,1.065,6.062,3.042c1.13,1.954,0.359,4.367-0.386,6.702c-0.591,1.357-0.852,2.835-0.763,4.312
			c0.647,1.265,1.579,2.363,2.724,3.205c1.856,1.672,3.773,3.408,3.773,5.752c0,2.343-1.917,4.079-3.773,5.758
			c-1.144,0.842-2.077,1.939-2.724,3.203c-0.09,1.478,0.172,2.956,0.763,4.314c0.746,2.335,1.516,4.749,0.386,6.702
			c-1.146,1.982-3.647,2.522-6.064,3.043c-1.446,0.161-2.834,0.66-4.051,1.457c-0.798,1.218-1.297,2.607-1.458,4.054
			c-0.522,2.416-1.065,4.915-3.042,6.062c-1.957,1.132-4.368,0.359-6.702-0.386c-1.358-0.59-2.835-0.851-4.312-0.763
			c-1.265,0.647-2.362,1.579-3.205,2.724C46.331,80.389,44.595,82.306,42.252,82.306z"/>
		<path fill="#fff" d="M41.003,17.028v-2.58c0-0.667,0.473-1.264,1.134-1.359c0.823-0.118,1.529,0.517,1.529,1.317v2.663
			c0,0.8-0.706,1.435-1.529,1.317C41.477,18.291,41.003,17.695,41.003,17.028z"/>
		<path fill="#fff" d="M35.703,19.262c-0.602,0-1.129-0.405-1.285-0.986l-0.687-2.571c-0.21-0.705,0.192-1.446,0.897-1.656
			c0.705-0.21,1.446,0.192,1.656,0.897c0.007,0.023,0.013,0.046,0.019,0.069l0.69,2.572c0.19,0.71-0.232,1.439-0.941,1.63
			C35.937,19.247,35.82,19.263,35.703,19.262L35.703,19.262z"/>
		<path fill="#fff" d="M29.604,21.79c-0.476,0.001-0.916-0.253-1.154-0.666l-1.331-2.307c-0.372-0.634-0.159-1.45,0.475-1.822
			c0.634-0.372,1.45-0.159,1.822,0.475c0.003,0.005,0.006,0.01,0.009,0.015l1.331,2.307c0.368,0.637,0.15,1.451-0.487,1.819
			C30.066,21.728,29.837,21.79,29.604,21.79z"/>
		<path fill="#fff" d="M24.365,25.81c-0.353,0-0.692-0.14-0.941-0.39l-1.884-1.884c-0.529-0.511-0.544-1.354-0.033-1.883
			c0.511-0.529,1.354-0.543,1.883-0.033c0.011,0.011,0.022,0.022,0.033,0.033l1.884,1.884c0.52,0.52,0.52,1.363,0,1.883
			C25.056,25.669,24.718,25.81,24.365,25.81L24.365,25.81z"/>
		<path fill="#fff" d="M22.481,63.467c-0.735,0-1.331-0.596-1.331-1.332c0-0.353,0.14-0.691,0.39-0.941l1.884-1.884
			c0.529-0.511,1.372-0.496,1.883,0.033c0.498,0.516,0.498,1.334,0,1.85l-1.884,1.884C23.172,63.327,22.834,63.467,22.481,63.467
			L22.481,63.467z"/>
		<path fill="#fff" d="M28.272,67.91c-0.735-0.001-1.331-0.597-1.33-1.333c0-0.233,0.062-0.462,0.178-0.664l1.331-2.307
			c0.372-0.634,1.188-0.847,1.822-0.475c0.628,0.368,0.844,1.173,0.484,1.807l-1.331,2.307C29.189,67.657,28.748,67.91,28.272,67.91
			z"/>
		<path fill="#fff" d="M35.016,70.702c-0.735,0-1.331-0.596-1.332-1.331c0-0.117,0.015-0.233,0.045-0.345l0.688-2.571
			c0.194-0.709,0.926-1.128,1.635-0.934c0.705,0.192,1.123,0.916,0.937,1.622l-0.69,2.572
			C36.144,70.297,35.618,70.701,35.016,70.702z"/>
		<path fill="#fff" d="M41.003,70.282v-2.58c0-0.667,0.473-1.264,1.134-1.359c0.823-0.118,1.529,0.517,1.529,1.317v2.663
			c0,0.8-0.706,1.436-1.529,1.317C41.477,71.546,41.003,70.949,41.003,70.282z"/>
		<path fill="#fff" d="M49.488,70.702c-0.602,0-1.129-0.405-1.285-0.986l-0.69-2.572c-0.187-0.711,0.238-1.439,0.95-1.626
			c0.706-0.185,1.43,0.233,1.622,0.937l0.688,2.571c0.19,0.71-0.231,1.44-0.941,1.631C49.72,70.687,49.604,70.702,49.488,70.702
			L49.488,70.702z"/>
		<path fill="#fff" d="M56.231,67.91c-0.476,0-0.916-0.253-1.154-0.666l-1.331-2.307c-0.372-0.634-0.159-1.45,0.475-1.822
			c0.634-0.372,1.45-0.159,1.822,0.475c0.003,0.005,0.006,0.01,0.009,0.016l1.331,2.307c0.368,0.637,0.15,1.451-0.487,1.819
			C56.693,67.848,56.464,67.91,56.231,67.91L56.231,67.91z"/>
		<path fill="#fff" d="M62.022,63.467c-0.353,0-0.692-0.14-0.941-0.39l-1.884-1.884c-0.511-0.529-0.496-1.372,0.033-1.883
			c0.516-0.498,1.334-0.498,1.85,0l1.884,1.884c0.52,0.52,0.52,1.363,0,1.883C62.714,63.327,62.375,63.467,62.022,63.467z"/>
		<path fill="#fff" d="M60.139,25.81c-0.735,0-1.331-0.596-1.331-1.332c0-0.353,0.14-0.691,0.39-0.941l1.884-1.884
			c0.511-0.529,1.354-0.543,1.883-0.033c0.529,0.511,0.544,1.354,0.033,1.883c-0.011,0.011-0.022,0.022-0.033,0.033l-1.884,1.884
			C60.83,25.669,60.492,25.81,60.139,25.81L60.139,25.81z"/>
		<path fill="#fff" d="M54.9,21.79c-0.735-0.001-1.331-0.597-1.33-1.333c0-0.233,0.062-0.462,0.178-0.664l1.331-2.307
			c0.363-0.639,1.176-0.863,1.815-0.5c0.639,0.363,0.863,1.176,0.5,1.815c-0.003,0.005-0.006,0.01-0.009,0.015l-1.331,2.307
			C55.816,21.537,55.376,21.791,54.9,21.79L54.9,21.79z"/>
		<path fill="#fff" d="M48.801,19.262c-0.117,0.001-0.233-0.015-0.346-0.045c-0.71-0.19-1.131-0.92-0.941-1.63l0.69-2.572
			c0.171-0.715,0.89-1.156,1.605-0.985c0.715,0.171,1.156,0.89,0.985,1.605c-0.006,0.023-0.012,0.046-0.019,0.069l-0.688,2.571
			C49.929,18.857,49.403,19.261,48.801,19.262L48.801,19.262z"/>
		<text transform="matrix(1 0 0 1 20.4238 49.0879)" fill="#fff" font-family="'OpenSans-Semibold'" font-size="19.1795">NEW</text>
	</g>
</g>
</svg>
