<?xml version="1.0" encoding="utf-8"?>
<!-- Generator: Adobe Illustrator 17.0.0, SVG Export Plug-In . SVG Version: 6.00 Build 0)  -->
<!DOCTYPE svg PUBLIC "-//W3C//DTD SVG 1.1//EN" "http://www.w3.org/Graphics/SVG/1.1/DTD/svg11.dtd">
<svg version="1.1" id="Layer_1" xmlns="http://www.w3.org/2000/svg" xmlns:xlink="http://www.w3.org/1999/xlink" x="0px" y="0px"
	 width="54px" height="77px" viewBox="0 0 54 77" enable-background="new 0 0 54 77" xml:space="preserve">
<g>
	<g id="arrow2_1_">
		<line fill="none" stroke="#fff" stroke-miterlimit="10" x1="15.799" y1="39.408" x2="15.799" y2="33.389"/>
		<line fill="none" stroke="#fff" stroke-miterlimit="10" x1="12.783" y1="36.399" x2="18.808" y2="36.399"/>
	</g>
	<g id="arrow1_1_">
		<line fill="none" stroke="#fff" stroke-miterlimit="10" x1="35.215" y1="15.73" x2="35.215" y2="5.975"/>
		<line fill="none" stroke="#fff" stroke-miterlimit="10" x1="30.336" y1="10.851" x2="40.1" y2="10.851"/>
	</g>
	<g>
		<path fill="#fff" d="M48.031,23.561c1.24,0,2.242,1.005,2.242,2.242c0,1.24-1.002,2.245-2.242,2.245
			c-1.24,0-2.242-1.005-2.242-2.245C45.789,24.566,46.791,23.561,48.031,23.561 M48.031,21.561c-2.339,0-4.242,1.903-4.242,4.242
			c0,2.341,1.903,4.245,4.242,4.245c2.339,0,4.242-1.904,4.242-4.245C52.273,23.463,50.37,21.561,48.031,21.561L48.031,21.561z"/>
	</g>
	<path fill="none" stroke="#fff" stroke-width="2" stroke-miterlimit="10" d="M19.367,8.108c0,3.167-2.566,5.733-5.733,5.733
		c-3.164,0-5.733-2.566-5.733-5.733c0-3.164,2.57-5.73,5.733-5.73C16.801,2.378,19.367,4.944,19.367,8.108z"/>
	<g>
		<path fill="#fff" d="M5.286,23.561c1.445,0,2.615,1.172,2.615,2.618s-1.169,2.618-2.615,2.618
			c-1.445,0-2.618-1.172-2.618-2.618S3.841,23.561,5.286,23.561 M5.286,21.561c-2.546,0-4.618,2.072-4.618,4.618
			s2.072,4.618,4.618,4.618c2.545,0,4.615-2.072,4.615-4.618S7.83,21.561,5.286,21.561L5.286,21.561z"/>
	</g>
	<path id="hand_1_" fill="none" stroke="#fff" stroke-width="2" stroke-miterlimit="10" d="M44.517,73.908H30.879
		c-2.309,0-4.532-0.967-6.112-2.647L13.46,59.204c-1.946-2.043-1.837-5.287,0.27-7.192c1.998-1.805,5.161-1.667,7.05,0.308
		l1.969,2.062V28.584c0-2.833,2.342-5.101,5.175-5.02c2.701,0.074,4.902,2.358,4.902,5.091v10.253
		c2.354-0.819,4.975,0.225,6.122,2.473c2.435-1.205,5.435-0.247,6.7,2.232c3.324-1.641,7.246,0.79,7.246,4.506v17.415
		C52.894,70.153,49.132,73.908,44.517,73.908z"/>
</g>
</svg>
